<svg xmlns="http://www.w3.org/2000/svg" xmlns:xlink="http://www.w3.org/1999/xlink"><defs><clipPath id="a"><path fill="#fff" transform="translate(.741)" d="M0 0h28v22H0z"/></clipPath></defs><symbol id="icon-bin"><path opacity=".2" d="M20.188 6.857h-3.55L13.188.381C12.985 0 12.58-.095 12.174.095s-.507.572-.304.953l3.145 5.81H5.783l3.145-5.81c.202-.381 0-.762-.305-.953-.406-.19-.811 0-1.014.286l-3.45 6.476H.812c-.406 0-.812.286-.812.762 0 .381.304.762.812.762h.202l.914 2.857c-.203.095-.305.286-.305.572 0 .38.305.666.71.666L4.058 18h12.884l1.725-5.524c.405 0 .71-.286.71-.667 0-.19-.102-.476-.304-.57l.912-2.858h.203c.406 0 .812-.286.812-.762 0-.476-.406-.762-.812-.762Zm-4.565 9.62H5.073L3.854 12.38h13.087l-1.319 4.095Zm1.623-5.525H3.348l-.812-2.666h15.522l-.812 2.666Z"/></symbol><symbol id="icon-htmlacademy"><path d="M13.65 0h-.1L0 1.396v24.627L13.55 34 27 26.023V1.396L13.65 0Zm11.443 12.065L13.55 5.285v-.1h-.1l-.1-.1v.1l-11.443 6.88V3.09L13.45 1.894l11.643 1.197v8.974ZM13.45 6.78l11.543 6.68-4.517 2.593-7.127-4.188v1.396l5.922 3.49-.903.498-5.019-2.99v1.395l3.815 2.293-.803.499-3.012-1.795v1.396l1.908 1.097-1.807 1.097-11.443-6.68L13.45 6.78ZM1.907 15.056l11.442 6.78v.997L5.42 18.147v1.396l8.03 4.785v1.097L5.42 20.74v1.396l8.03 4.786 8.13-4.886V16.85l3.413-1.994v9.971l-11.543 6.88-11.543-6.78v-9.871Z"/></symbol><symbol id="icon-search"><path opacity=".2" d="m17.693 16.057-3.477-3.477c1.023-1.33 1.534-2.966 1.534-4.705C15.75 3.477 12.273 0 7.875 0S0 3.477 0 7.875s3.477 7.875 7.875 7.875c1.739 0 3.375-.614 4.704-1.534l3.478 3.477c.204.205.409.307.818.307.614 0 1.125-.511 1.125-1.125 0-.204-.102-.511-.307-.818ZM2.25 7.875c0-3.068 2.557-5.625 5.625-5.625S13.5 4.807 13.5 7.875 10.943 13.5 7.875 13.5 2.25 10.943 2.25 7.875Z"/></symbol><symbol id="input-mail"><path d="M28 0H4C1.8 0 0 1.8 0 4v13c0 2.2 1.8 4 4 4h24c2.2 0 4-1.8 4-4V4c0-2.2-1.8-4-4-4ZM2 5.3l7 5.3-7 5.3V5.3ZM30 17c0 1.1-.9 2-2 2H4c-1.1 0-2-.9-2-2l7.8-5.9 4.4 3.3c.5.4 1.2.6 1.8.6.6 0 1.3-.2 1.8-.6l4.4-3.3L30 17Zm0-1.2-7-5.3 7-5.3v10.6Zm-12.8-2.2c-.4.3-.8.4-1.2.4-.4 0-.9-.1-1.2-.4l-4.1-3.1-.8-.6L2 4c0-1.1.9-2 2-2h24c1.1 0 2 .9 2 2l-12.8 9.6Z"/></symbol><symbol id="input-phone"><path d="M17.44 24h-1.11c-4.939-.593-8.568-2.864-11.189-5.728C2.521 15.408.403 11.753 0 6.716V5.333c.1-.888.504-1.481 1.109-2.074.605-.69 1.613-1.481 2.52-1.58.706 0 1.815.494 2.218 1.087.403.493.605 1.58.806 2.37.202.889.605 1.975.504 2.765-.201 1.186-1.814 1.68-2.217 2.568 1.612 3.655 4.133 6.42 7.56 8.198.806-.494 1.613-1.877 2.823-1.877.403 0 1.008.198 1.41.297.505.098.908.296 1.311.493.706.297 2.017.593 2.42 1.186.403.592.705 1.58.605 2.172-.303 1.284-2.42 2.667-3.63 3.062ZM12.6 1.481c5.948 0 10.888 4.741 10.888 10.667H25C25 5.432 19.456 0 12.6 0v1.481Z" fill="#000"/><path d="M12.6 9.185v1.58c.807 0 1.412.593 1.412 1.383h1.613c0-1.58-1.31-2.963-3.024-2.963Z" fill="#000"/><path d="M12.6 6.124c3.327 0 6.15 2.666 6.15 6.024h1.613c0-4.148-3.427-7.506-7.661-7.506v1.482H12.6Z"/></symbol><symbol id="telegram"><path fill-rule="evenodd" clip-rule="evenodd" d="M24.202 3.153c.178.15.265.382.226.611l-2.626 15.757a.657.657 0 0 1-1.011.439l-7.879-5.253a.657.657 0 0 1-.149-.956l2.611-3.263-4.36 2.906a.657.657 0 0 1-.658.041L5.104 10.81a.657.657 0 0 1 .073-1.205L23.56 3.038a.657.657 0 0 1 .642.115Zm-17.135 7.17 3.536 1.768 7.561-5.041a.656.656 0 0 1 .877.956l-4.805 6.006 6.438 4.292L22.95 4.65 7.067 10.323Z"/></symbol><symbol id="vkontakte"><g clip-path="url(#a)"><path d="M1.741 5.339c0-.855.515-1.316 1.546-1.383l3.97.025a.52.52 0 0 1 .532.377c.409 1.257.866 2.343 1.372 3.257.507.913 1.168 1.965 1.985 3.156.071.15.187.226.347.226.124 0 .222-.059.293-.176l.08-.277.026-4.35c0-.302-.075-.503-.226-.604-.151-.1-.43-.176-.84-.226-.32-.05-.479-.235-.479-.553 0-.067.009-.118.027-.151.373-1.09 1.438-1.635 3.197-1.635L15.063 3c.675 0 1.234.16 1.678.478.444.318.666.821.666 1.509v5.708c.125.084.24.126.347.126.266 0 .497-.15.692-.453 1.954-2.582 3.011-4.308 3.171-5.18 0-.017.018-.059.053-.126.125-.251.329-.47.613-.654.284-.184.533-.31.746-.377a.555.555 0 0 1 .24-.05h4.13l.266.025c.355 0 .63.16.826.478.071.1.12.21.147.327.026.117.044.234.053.352.009.117.013.184.013.2v.177c-.124.687-.44 1.42-.946 2.2-.506.78-1.15 1.622-1.931 2.528-.782.905-1.27 1.5-1.466 1.785-.16.201-.24.386-.24.553 0 .135.072.286.214.453l3.89 4.627c.213.269.32.562.32.88 0 .386-.16.705-.48.956-.32.252-.702.394-1.146.428l-.453.025h-4.05a.855.855 0 0 0-.106.012.862.862 0 0 1-.107.013c-.39 0-.755-.16-1.092-.478-.125-.134-.96-1.123-2.505-2.967a1.387 1.387 0 0 0-.373-.327c-.07.268-.164.654-.28 1.157-.115.503-.2.863-.252 1.081l-.08.427c-.178.587-.551.94-1.12 1.057l-.372.025h-2.612c-1.474 0-2.944-.637-4.409-1.911-1.465-1.275-2.784-2.922-3.956-4.942-1.173-2.02-2.265-4.372-3.278-7.054a1.916 1.916 0 0 1-.133-.73Zm16.013 6.513c-.373 0-.71-.096-1.013-.29-.302-.192-.453-.456-.453-.791V4.987c0-.336-.088-.575-.266-.717-.178-.143-.488-.214-.932-.214l-1.52.05c-.763 0-1.34.126-1.731.378.781.352 1.172.922 1.172 1.71v4.426a1.5 1.5 0 0 1-.533 1.044 1.59 1.59 0 0 1-1.065.414c-.533 0-.942-.243-1.226-.729-1.385-1.978-2.416-3.856-3.09-5.633l-.24-.654-3.544-.025c-.23 0-.36.013-.386.038-.027.025-.04.096-.04.213 0 .151.018.31.053.478l.56 1.409c1.492 3.638 3.112 6.505 4.862 8.6 1.75 2.096 3.468 3.144 5.155 3.144h2.665c.106 0 .186-.03.24-.088.053-.06.097-.172.133-.34l.053-.251.506-2.213c.142-.302.267-.503.373-.604a.976.976 0 0 1 .693-.277c.426 0 .862.243 1.306.73l2.264 2.716c.142.218.293.327.453.327H26.6c.533 0 .8-.126.8-.378a.466.466 0 0 0-.08-.251l-3.863-4.552c-.302-.352-.453-.73-.453-1.131 0-.403.142-.788.426-1.157.23-.336.68-.893 1.345-1.673A37.63 37.63 0 0 0 26.52 7.59c.498-.68.826-1.296.986-1.849l.08-.327a.37.37 0 0 1-.027-.163.574.574 0 0 0-.026-.189h-4.183c-.267.1-.48.252-.64.453l-.16.478c-.444 1.156-1.607 2.942-3.49 5.356a1.892 1.892 0 0 1-1.305.503Z"/></g></symbol><symbol id="youtube"><path d="m18.592 10.793-5.236-3.491a.655.655 0 0 0-1.015.545v6.982a.654.654 0 0 0 1.015.546l5.236-3.491a.655.655 0 0 0 0-1.091Zm-4.942 2.814V9.07l3.404 2.27-3.404 2.268Zm12.48-8.563a2.4 2.4 0 0 0-1.45-1.637C20.96 1.978 14.991 2 14.74 2c-.25 0-6.218-.022-9.938 1.407a2.4 2.4 0 0 0-1.45 1.637c-.285 1.069-.612 3.032-.612 6.294 0 3.262.327 5.226.611 6.295a2.4 2.4 0 0 0 1.451 1.636c3.72 1.43 9.687 1.407 9.938 1.407h.077c.752 0 6.316-.043 9.861-1.407a2.4 2.4 0 0 0 1.451-1.636c.284-1.07.611-3.033.611-6.295s-.327-5.225-.61-6.294Zm-1.265 12.261a1.09 1.09 0 0 1-.655.742c-3.49 1.342-9.403 1.32-9.469 1.32-.065 0-5.978.022-9.469-1.32a1.09 1.09 0 0 1-.654-.742c-.262-1.003-.568-2.847-.568-5.967 0-3.12.306-4.963.568-5.967a1.09 1.09 0 0 1 .654-.742c3.491-1.342 9.404-1.32 9.47-1.32.065 0 5.977-.022 9.468 1.32a1.092 1.092 0 0 1 .655.742c.262 1.004.567 2.847.567 5.967 0 3.12-.305 4.964-.567 5.967Z"/></symbol></svg>